<svg width="64" height="64" viewBox="0 0 64 64" fill="none" xmlns="http://www.w3.org/2000/svg">
<g clip-path="url(#clip0_11_1716)">
<path d="M20.8248 21.1096C22.3948 19.4196 24.2448 17.9696 26.2448 16.8096C30.4648 17.4096 33.1148 21.2996 33.6548 25.3096C35.6248 22.4596 38.3248 20.2096 41.7948 19.5496C42.0948 20.7596 42.3948 21.9696 42.7048 23.1996C44.5348 23.3496 46.3648 23.5196 48.2048 23.6996C47.8848 27.2296 45.9448 30.2096 43.3648 32.5396C45.3448 33.4896 47.9448 33.7896 49.3748 35.5596C49.6148 38.0296 50.1848 40.8796 49.0348 43.1596C46.2248 44.0296 43.2448 44.7996 40.2948 44.5296C38.1148 42.9496 36.2448 40.9996 34.2348 39.2496C34.5848 42.9496 33.4948 49.0396 28.4748 48.0896C26.4148 45.9396 26.8148 42.4996 26.1848 39.7696C24.5548 40.5896 23.0148 41.7596 21.1948 42.0596C19.0048 42.0396 16.9048 41.3396 14.7948 40.8996C14.3448 38.2096 13.5348 35.0996 15.6548 32.8596C17.6048 29.3896 21.9548 31.1496 25.0948 31.2896C22.8948 28.3796 19.8148 25.0496 20.8248 21.1096Z" fill="#FDCAC9"/>
</g>
<defs>
<clipPath id="clip0_11_1716">
<rect width="35.47" height="31.38" fill="white" transform="translate(14.2649 16.8096)"/>
</clipPath>
</defs>
</svg>
